<?xml version="1.0" encoding="UTF-8" standalone="no"?>
<svg
   xmlns:dc="http://purl.org/dc/elements/1.1/"
   xmlns:cc="http://creativecommons.org/ns#"
   xmlns:rdf="http://www.w3.org/1999/02/22-rdf-syntax-ns#"
   xmlns:svg="http://www.w3.org/2000/svg"
   xmlns="http://www.w3.org/2000/svg"
   viewBox="0 0 149.54828 130.33133"
   height="130.33133"
   width="149.54828"
   xml:space="preserve"
   id="svg2"
   version="1.1"><metadata
     id="metadata8"><rdf:RDF><cc:Work
         rdf:about=""><dc:format>image/svg+xml</dc:format><dc:type
           rdf:resource="http://purl.org/dc/dcmitype/StillImage" /></cc:Work></rdf:RDF></metadata><defs
     id="defs6"><clipPath
       id="clipPath14"
       clipPathUnits="userSpaceOnUse"><path
         id="path12"
         d="M 0,0 H 14400 V 14400 H 0 Z" /></clipPath><clipPath
       id="clipPath22"
       clipPathUnits="userSpaceOnUse"><path
         id="path20"
         d="M 0,14400 H 14400 V 0 H 0 Z" /></clipPath><clipPath
       id="clipPath42"
       clipPathUnits="userSpaceOnUse"><path
         id="path40"
         d="m 7160.11,7248.39 h 79.5 v -79.5 h -79.5 z" /></clipPath></defs><g
     clip-path="url(#clipPath14)"
     transform="matrix(1.3333333,0,0,-1.3333333,-9525.9345,9664.5198)"
     id="g10"><g
       id="g16"><g
         clip-path="url(#clipPath22)"
         id="g18"><g
           transform="translate(7256.6123,7239.8916)"
           id="g24"><path
             id="path26"
             style="fill:#ffffff;fill-opacity:1;fill-rule:nonzero;stroke:none"
             d="m 0,0 c 0,-3.037 -2.463,-5.5 -5.5,-5.5 -3.037,0 -5.5,2.463 -5.5,5.5 0,3.037 2.463,5.5 5.5,5.5 C -2.463,5.5 0,3.037 0,0" /></g><g
           transform="translate(7217.623,7153.3955)"
           id="g28"><path
             id="path30"
             style="fill:#ffffff;fill-opacity:1;fill-rule:nonzero;stroke:none"
             d="m 0,0 c 0,-1.521 -1.233,-2.754 -2.754,-2.754 -1.521,0 -2.755,1.233 -2.755,2.754 0,1.521 1.234,2.755 2.755,2.755 C -1.233,2.755 0,1.521 0,0" /></g><g
           transform="translate(7204.3691,7222.6372)"
           id="g32"><path
             id="path34"
             style="fill:#ffffff;fill-opacity:1;fill-rule:nonzero;stroke:none"
             d="m 0,0 c 0,-1.521 -1.234,-2.754 -2.754,-2.754 -1.522,0 -2.755,1.233 -2.755,2.754 0,1.521 1.233,2.755 2.755,2.755 C -1.234,2.755 0,1.521 0,0" /></g><g
           id="g36"><g
             id="g38" /><g
             id="g50"><g
               style="opacity:0.22999603"
               id="g48"
               clip-path="url(#clipPath42)"><g
                 id="g46"
                 transform="translate(7239.6113,7208.6411)"><path
                   id="path44"
                   style="fill:#ffffff;fill-opacity:1;fill-rule:nonzero;stroke:none"
                   d="m 0,0 c 0,-21.953 -17.795,-39.749 -39.748,-39.749 -21.953,0 -39.749,17.796 -39.749,39.749 0,21.953 17.796,39.749 39.749,39.749 C -17.795,39.749 0,21.953 0,0" /></g></g></g></g><g
           transform="translate(7192.8657,7210.0825)"
           id="g52"><path
             id="path54"
             style="fill:#00ffff;fill-opacity:1;fill-rule:nonzero;stroke:none"
             d="m 0,0 -9.734,-4.153 -27.858,5.085 6.707,2.862 z M 47.599,9.216 C 47.804,7.789 44.285,0.593 38.73,-2.544 l -5.757,13.496 c 6.109,1.838 13.738,-0.6 14.626,-1.736 m -58.23,-52.899 -6.707,-2.862 15.609,23.628 9.734,4.153 z m 1.905,17.78 4.137,1.766 -15.609,-23.628 -2.095,-0.894 z m -15.785,-0.88 -0.505,1.183 11.975,5.108 1.418,-3.324 z m -11.832,-0.622 c -0.379,-0.162 -0.818,0.016 -0.98,0.394 -0.161,0.378 0.015,0.817 0.394,0.979 l 8.954,3.821 14.537,6.201 19.942,8.506 C 6.882,-7.343 7.322,-7.519 7.483,-7.897 7.645,-8.276 7.469,-8.716 7.09,-8.877 l -19.943,-8.507 -14.536,-6.2 z m 8.051,9.484 11.063,7.249 1.417,-3.325 -11.975,-5.108 z M 31.718,-5.622 25.9,8.021 30.38,9.933 36.201,-3.709 Z m -42.197,-13.777 18.662,7.961 c 1.79,0.764 2.625,2.842 1.861,4.633 -0.763,1.791 -2.842,2.627 -4.633,1.862 l -18.661,-7.961 -1.525,3.574 20.629,8.8 17.483,7.458 5.821,-13.642 -17.485,-7.458 -20.628,-8.801 z m -29.973,19.111 27.858,-5.085 -4.136,-1.765 -25.816,5.957 z M -48.409,-1.7 c 0.013,-0.148 0.05,-0.291 0.106,-0.424 0.171,-0.4 0.526,-0.708 0.967,-0.81 l 27.243,-6.285 -10.699,-7.012 c -0.564,-0.371 -0.782,-1.092 -0.517,-1.711 l 0.961,-2.255 -7.674,-3.274 c -1.791,-0.764 -2.626,-2.842 -1.862,-4.633 0.764,-1.791 2.842,-2.626 4.634,-1.861 l 7.673,3.272 0.962,-2.255 c 0.264,-0.62 0.936,-0.961 1.593,-0.81 l 12.467,2.871 -14.318,-24.016 c -0.232,-0.389 -0.256,-0.857 -0.084,-1.26 0.056,-0.131 0.134,-0.255 0.232,-0.369 0.396,-0.453 1.04,-0.601 1.594,-0.365 l 15.937,6.799 c 0.225,0.097 0.422,0.25 0.569,0.447 l 21.736,29.065 18.42,7.857 7.043,3.004 c 4.36,1.861 7.453,5.748 8.908,7.899 0.631,0.932 3.723,5.704 2.685,8.137 -1.039,2.433 -6.623,3.504 -7.731,3.693 -2.56,0.438 -7.507,0.896 -11.867,-0.963 L 23.526,10.036 5.106,2.178 -30.917,6.603 c -0.243,0.03 -0.49,-0.005 -0.716,-0.102 l -15.936,-6.797 c -0.554,-0.237 -0.894,-0.804 -0.84,-1.404" /></g></g></g></g></svg>